<svg width="503.1" height="79.38221581106768" viewBox="0 0 369.65517241379314 58.32646923520008" class="looka-1j8o68f"><defs id="SvgjsDefs1407"></defs><g id="SvgjsG1408" featurekey="5TMTKC-0" transform="matrix(0.6917685141260415,0,0,0.6917685141260415,-0.000014184020093641178,0.030577118851633864)" fill="#ffffff"><title xmlns="http://www.w3.org/2000/svg">Безымянный-151</title><path xmlns="http://www.w3.org/2000/svg" d="M59.72786,24.65937c.52226-1.69851.9999-3.20375,1.44747-4.71786.858-2.90245,2.18395-5.6606,2.40809-8.76076.109-1.50792,1.87894-3.02748,3.37861-3.25126a2.01233,2.01233,0,0,1,2.29009.8136c1.28183,2.56751,3.8282,3.26315,6.16663,3.88193,3.20342.84763,5.17723,2.43813,5.34919,6.07259.68344-.30019,1.20909-.5055,1.71208-.75626,2.51571-1.25423,4.43414-.71089,5.93127,1.64255A35.746,35.746,0,0,1,92.45711,29.655c.206.76191.42744,1.52234.694,2.26469.75887,2.11345.75764,4.02877-1.29054,5.47942a2.273,2.273,0,0,0-.3841.54342A3.5885,3.5885,0,0,1,92.65437,42.354c-.299.856-.4727,1.75584-.77466,2.909-1.143-.31895-2.14837-.548-3.11623-.88486-.86934-.30252-1.6912-.73887-2.54541-1.08832A6.98166,6.98166,0,0,0,82.5598,42.782a31.2978,31.2978,0,0,1-4.42927-.03184,6.6735,6.6735,0,0,0,.11458,1.18218c1.34363,5.15247.21778,10.09977-1.284,14.99577-1.46645,4.78064-4.54538,8.40657-8.35184,11.5384-5.60652,4.61276-12.08078,6.31406-19.187,5.84254a34.273,34.273,0,0,1-5.17058-1.15547,3.73718,3.73718,0,0,0-.55494.87937A102.45336,102.45336,0,0,0,40.457,89.08037c-.25328,1.46713-.26392,1.49918-1.67709,1.657a8.5574,8.5574,0,0,0-2.31434.43623,15.55859,15.55859,0,0,1-6.807.91543,2.51269,2.51269,0,0,1-2.46731-1.61389c-.3408-.77295-.823-1.48388-1.15832-2.25879a2.56929,2.56929,0,0,0-2.80545-1.69131,2.04988,2.04988,0,0,1-2.42808-2.03383,4.21,4.21,0,0,0-1.524-2.85113,5.772,5.772,0,0,1-1.5082-2.28288,5.73149,5.73149,0,0,0-3.60339-3.4419c-.24726-.09439-.50826-.15688-.74758-.26732a2.57774,2.57774,0,0,1-1.59442-3.54512c.17421-.55833.40729-1.0983.66422-1.78169-.55652-.30081-1.07648-.546-1.559-.85055A2.5111,2.5111,0,0,1,9.4345,67.09358a2.34672,2.34672,0,0,0-1.44828-2.38126C6.0778,63.67086,6.185,62.84536,6.72557,60.9121a6.08474,6.08474,0,0,1,4.77928-4.50528,30.87211,30.87211,0,0,1,8.80052-1.24314c2.27664.102,4.5712-.1966,6.86033-.317.05654-1.88734.15937-3.531.145-5.17362-.04332-4.96489,1.84014-9.327,4.5411-13.28108a35.21666,35.21666,0,0,1,6.17962-6.934A22.39008,22.39008,0,0,1,50.2275,24.21336,32.977,32.977,0,0,1,59.72786,24.65937ZM70.94018,33.873a22.42371,22.42371,0,0,0-8.163-6.61631C55.5179,23.90261,48.53907,24.65167,41.688,28.33736c-2.3014,1.23811-3.99406,3.179-5.85249,4.97952-3.11172,3.01487-4.83523,6.70769-6.31854,10.621a20.54126,20.54126,0,0,0-1.04,10.14622A25.776,25.776,0,0,0,33.85817,66.07a23.55418,23.55418,0,0,0,7.33713,6.27145,19.78213,19.78213,0,0,0,11.34541,2.95994c6.06583-.438,11.672-2.14088,16.17728-6.55967a26.96238,26.96238,0,0,0,5.84446-7.41941,33.334,33.334,0,0,0,3.018-13.45286,14.81086,14.81086,0,0,0-.84521-4.846C75.58823,39.37963,73.83909,36.06237,70.94018,33.873ZM27.65788,56.09911c-1.096.06835-2.01041.12556-2.92489.18247-4.00226.24875-8.02484.0193-11.98379,1.09759a6.91045,6.91045,0,0,0-4.39735,3.04767c-1.13542,1.86872-.94448,2.57711.56423,3.4744,1.12559.66939,2.15285,1.56067,1.79277,3.20927-.06926.31729.368.80157.66453,1.12312a3.05883,3.05883,0,0,0,.87041.45438c1.77928.9181,1.85783,1.12652,1.09285,2.88382-.07917.18189-.17609.35669-.24584.54189a1.70013,1.70013,0,0,0,.92767,2.44945c.23182.12053.5043.15975.74929.25829a6.4711,6.4711,0,0,1,4.0438,3.8035,6.08514,6.08514,0,0,0,1.60558,2.20692,4.66852,4.66852,0,0,1,1.6407,2.84543,1.70794,1.70794,0,0,0,1.967,1.71847,3.108,3.108,0,0,1,2.95285,1.65776,24.32119,24.32119,0,0,1,1.306,2.39587c.3105.7193.64564,1.26791,1.51238,1.34764a11.92034,11.92034,0,0,0,5.2836-.49356,13.89808,13.89808,0,0,1,2.63055-.82695c1.11112-.16667,1.51378-.73762,1.76225-1.78019.91843-3.853,1.91914-7.687,2.934-11.51615.44767-1.689.43771-1.82362-1.133-2.58909-.34878-.17-.7229-.28784-1.26738-.501-.68972,1.23451-1.2692,2.4911-2.04421,3.6125-1.53416,2.21974-3.1657,4.37274-4.78154,6.535-.38793.51913-.85492,1.02757-1.75717.40511a12.26167,12.26167,0,0,0,1.04377-1.16134c1.83232-2.65741,3.79062-5.24367,5.41309-8.02507,1.27982-2.19388,1.09347-2.30511-1.10487-3.67019a.69092.69092,0,0,0-.31473-.04345c-.85131.316-1.36381,1.32888-2.70266.96115.61265-.85371,1.10677-1.54218,1.5891-2.21431-1.14979-.94564-1.66987.45117-2.45341.52379-.94051-1.15229.76036-1.36967.62218-2.48627a10.17843,10.17843,0,0,0-1.70758.80577c-1.28216.93306-2.49909,1.95533-3.76907,2.90593a5.58208,5.58208,0,0,1-1.33955.41273c1.68728-2.46938,3.90132-3.69683,5.70792-5.30116-.87-1.55776-.84641-1.50211-2.21905-.92034a17.74079,17.74079,0,0,1-2.99776.90685c-.22581.05127-.547-.31775-.82427-.49327a9.69072,9.69072,0,0,0,4.38215-2.1896c-.35948-.71114-.69969-1.3842-.98379-1.94628-1.5036-.04553-2.61462,1.08493-4.426.37756,1.42985-.63145,2.48159-1.09587,3.69323-1.63092C28.58335,59.03284,28.15387,57.67141,27.65788,56.09911ZM79.63582,19.87667c-.08208-.72387-.2021-1.433-.23553-2.14608a3.59827,3.59827,0,0,0-2.55618-3.41628c-2.09091-.80158-4.16048-1.66506-6.27873-2.38607a2.47152,2.47152,0,0,1-1.82421-1.55853c-.4518-1.17471-1.21347-1.28925-2.43478-.81032a2.53745,2.53745,0,0,0-1.63341,2.0322c-.54934,2.3701-1.23868,4.70839-1.89721,7.0523-.48262,1.71789-1.01246,3.42247-1.50829,5.1367-.19086.65989-.305,1.32225.48315,1.71087,1.34421.66282,2.69147,1.31949,4.06138,1.99045,1.05557-1.8118,1.74138-3.6859,3.31112-5.00615a7.66116,7.66116,0,0,1-.66273,2.21552c-.41323.97144-.85655,1.93034-1.25646,2.90709-.251.61309-.05514,1.02347.63645,1.12331,1.05928-.556,1.01423-2.13983,2.45137-2.60535.18524,1.20077-.49312,1.96116-.93206,2.78964-.38824.73283-.48161,1.36444.55664,1.74264.57162-.72619,1.12849-1.454,1.70765-2.16367a3.25746,3.25746,0,0,1,2.50175-1.70811c-1.257,1.75241-2.32039,3.235-3.47346,4.84245l1.43318,1.37532c2.44234-2.96163,4.76651-5.78,7.2135-8.74722a1.79415,1.79415,0,0,1-.49187,1.95765c-1.53466,1.9822-3.10143,3.93975-4.61677,5.93645-.4236.55821-1.145,1.07289-.758,2.1389.49952-.3667.84947-.65813,1.23309-.895.33969-.20959.71693-.35834,1.07757-.534l.20769.26366c-.50165.76549-1.00326,1.531-1.56222,2.38406,1.21829.35305,1.89924-1.36005,3.23958-.297-.8319.58513-1.5462,1.08759-2.25765,1.588.203,1.17116.81752,1.31261,1.71342.82077,2.19557-1.20517,4.38564-2.42044,6.58786-3.61329a5.58984,5.58984,0,0,1,.97988-.32052l.2052.38612c-2.37634,2.19661-5.77489,2.938-8.11024,5.29837l.633,2.06807c2.12962.05524,4.2285.08937,6.32518.17607a6.51672,6.51672,0,0,1,1.93739.32089c1.23367.44884,2.40971,1.056,3.6427,1.50728a7.711,7.711,0,0,0,1.73533.2097c.24375-.88441.4945-1.56978.61448-2.27731.23835-1.40565-.165-2.0034-1.54012-2.52647a7.14782,7.14782,0,0,1-1.61281-.73142c-.29-.20556-.394-.67367-.69022-1.22688.67788-.05469,1.055-.10288,1.433-.11285,2.578-.06758,3.62391-1.39074,3.00289-3.86114-.22509-.89536-.57094-1.75991-.80657-2.65307a36.8088,36.8088,0,0,0-3.41273-9.05662c-1.72816-3.02033-2.57052-3.34068-5.6751-1.79606A2.87525,2.87525,0,0,1,79.63582,19.87667Z" transform="translate(-6.38364 -7.87962)"></path></g><g id="SvgjsG1409" featurekey="7UBp9i-0" transform="matrix(2.210433100776976,0,0,2.210433100776976,78.71790733653481,-4.500441014614967)" fill="#ffffff"><path d="M5.32 9.38 c1.3867 0 2.47 0.28002 3.25 0.84002 s1.2167 1.38 1.31 2.46 l-2.7 0 c-0.04 -0.49334 -0.22 -0.85 -0.54 -1.07 s-0.78666 -0.33 -1.4 -0.33 c-0.53334 0 -0.93 0.08 -1.19 0.24 s-0.39 0.4 -0.39 0.72 c0 0.24 0.08666 0.44 0.26 0.6 s0.43668 0.3 0.79002 0.42 s0.74334 0.22 1.17 0.3 c1.2933 0.25334 2.2066 0.51334 2.74 0.78 s0.92334 0.58666 1.17 0.96 s0.37 0.83334 0.37 1.38 c0 1.16 -0.42334 2.05 -1.27 2.67 s-1.9967 0.93 -3.45 0.93 c-1.52 0 -2.7034 -0.32666 -3.55 -0.98 s-1.2833 -1.54 -1.31 -2.66 l2.7 0 c0 0.53334 0.20666 0.95668 0.62 1.27 s0.93334 0.47 1.56 0.47 c0.53334 0 0.97668 -0.11666 1.33 -0.35 s0.53 -0.55668 0.53 -0.97002 c0 -0.26666 -0.11 -0.48666 -0.33 -0.66 s-0.53 -0.32668 -0.93 -0.46002 s-1.02 -0.28668 -1.86 -0.46002 c-0.66666 -0.13334 -1.26 -0.31334 -1.78 -0.54 s-0.91666 -0.52332 -1.19 -0.88998 s-0.41 -0.81666 -0.41 -1.35 c0 -0.68 0.16334 -1.2733 0.49 -1.78 s0.82666 -0.89 1.5 -1.15 s1.51 -0.39 2.51 -0.39 z M13.86 9.66 l1.9 7.02 l0.04 0 l1.72 -7.02 l2.76 0 l1.76 7 l0.04 0 l1.9 -7 l2.92 0 l-3.26 10.34 l-2.92 0 l-1.84 -6.94 l-0.04 0 l-1.76 6.94 l-2.94 0 l-3.28 -10.34 l3 0 z M32.88 9.38 c0.97334 0 1.84 0.22664 2.6 0.67998 s1.3567 1.11 1.79 1.97 s0.65 1.85 0.65 2.97 c0 0.10666 -0.0066602 0.28 -0.02 0.52 l-7.46 0 c0.02666 0.82666 0.24332 1.47 0.64998 1.93 s1.03 0.69 1.87 0.69 c0.52 0 0.99666 -0.13 1.43 -0.39 s0.71 -0.57666 0.83 -0.95 l2.5 0 c-0.73334 2.32 -2.3466 3.48 -4.84 3.48 c-0.94666 -0.01334 -1.8233 -0.22 -2.63 -0.62 s-1.45 -1.0233 -1.93 -1.87 s-0.72 -1.83 -0.72 -2.95 c0 -1.0533 0.24334 -2.0134 0.73 -2.88 s1.1333 -1.5133 1.94 -1.94 s1.6767 -0.64 2.61 -0.64 z M35.06 13.719999999999999 c-0.13334 -0.77334 -0.38 -1.3333 -0.74 -1.68 s-0.87334 -0.52 -1.54 -0.52 c-0.69334 0 -1.24 0.19666 -1.64 0.59 s-0.63334 0.93 -0.7 1.61 l4.62 0 z M44.36 9.38 c0.97334 0 1.84 0.22664 2.6 0.67998 s1.3567 1.11 1.79 1.97 s0.65 1.85 0.65 2.97 c0 0.10666 -0.0066602 0.28 -0.02 0.52 l-7.46 0 c0.02666 0.82666 0.24332 1.47 0.64998 1.93 s1.03 0.69 1.87 0.69 c0.52 0 0.99666 -0.13 1.43 -0.39 s0.71 -0.57666 0.83 -0.95 l2.5 0 c-0.73334 2.32 -2.3466 3.48 -4.84 3.48 c-0.94666 -0.01334 -1.8233 -0.22 -2.63 -0.62 s-1.45 -1.0233 -1.93 -1.87 s-0.72 -1.83 -0.72 -2.95 c0 -1.0533 0.24334 -2.0134 0.73 -2.88 s1.1333 -1.5133 1.94 -1.94 s1.6767 -0.64 2.61 -0.64 z M46.54 13.719999999999999 c-0.13334 -0.77334 -0.38 -1.3333 -0.74 -1.68 s-0.87334 -0.52 -1.54 -0.52 c-0.69334 0 -1.24 0.19666 -1.64 0.59 s-0.63334 0.93 -0.7 1.61 l4.62 0 z M54.660000000000004 6.5600000000000005 l0.000019531 3.1 l2.08 0 l0 1.9 l-2.08 0 l0 5.12 c0 0.48 0.08 0.8 0.24 0.96 s0.48 0.24 0.96 0.24 c0.34666 0 0.64 -0.02666 0.88 -0.08 l0 2.22 c-0.4 0.06666 -0.96 0.1 -1.68 0.1 c-1.0933 0 -1.9067 -0.18666 -2.44 -0.56 s-0.8 -1.02 -0.8 -1.94 l0 -6.06 l-1.72 0 l0 -1.9 l1.72 0 l0 -3.1 l2.84 0 z M67.9 9.38 c1.3867 0 2.47 0.28002 3.25 0.84002 s1.2167 1.38 1.31 2.46 l-2.7 0 c-0.04 -0.49334 -0.22 -0.85 -0.54 -1.07 s-0.78666 -0.33 -1.4 -0.33 c-0.53334 0 -0.93 0.08 -1.19 0.24 s-0.39 0.4 -0.39 0.72 c0 0.24 0.08666 0.44 0.26 0.6 s0.43668 0.3 0.79002 0.42 s0.74334 0.22 1.17 0.3 c1.2933 0.25334 2.2066 0.51334 2.74 0.78 s0.92334 0.58666 1.17 0.96 s0.37 0.83334 0.37 1.38 c0 1.16 -0.42334 2.05 -1.27 2.67 s-1.9967 0.93 -3.45 0.93 c-1.52 0 -2.7034 -0.32666 -3.55 -0.98 s-1.2833 -1.54 -1.31 -2.66 l2.7 0 c0 0.53334 0.20666 0.95668 0.62 1.27 s0.93334 0.47 1.56 0.47 c0.53334 0 0.97668 -0.11666 1.33 -0.35 s0.53 -0.55668 0.53 -0.97002 c0 -0.26666 -0.11 -0.48666 -0.33 -0.66 s-0.53 -0.32668 -0.93 -0.46002 s-1.02 -0.28668 -1.86 -0.46002 c-0.66666 -0.13334 -1.26 -0.31334 -1.78 -0.54 s-0.91666 -0.52332 -1.19 -0.88998 s-0.41 -0.81666 -0.41 -1.35 c0 -0.68 0.16334 -1.2733 0.49 -1.78 s0.82666 -0.89 1.5 -1.15 s1.51 -0.39 2.51 -0.39 z M79.36000000000001 9.38 c1.4 0 2.54 0.35664 3.42 1.07 s1.36 1.6633 1.44 2.85 l-2.78 0 c-0.18666 -1.1867 -0.88666 -1.78 -2.1 -1.78 c-0.74666 0 -1.3367 0.30666 -1.77 0.92 s-0.65 1.4267 -0.65 2.44 c0 0.97334 0.20666 1.76 0.62 2.36 s0.99334 0.9 1.74 0.9 c1.2933 0 2.0466 -0.7 2.26 -2.1 l2.74 0 c-0.18666 1.3733 -0.71666 2.4234 -1.59 3.15 s-2.0034 1.09 -3.39 1.09 c-1.5333 0 -2.7866 -0.49 -3.76 -1.47 s-1.46 -2.2566 -1.46 -3.83 c0 -1.7067 0.48 -3.0666 1.44 -4.08 s2.24 -1.52 3.84 -1.52 z M90.9 9.38 c1.6533 0 2.96 0.50334 3.92 1.51 s1.44 2.3234 1.44 3.95 c0 1.64 -0.49 2.9566 -1.47 3.95 s-2.2766 1.49 -3.89 1.49 c-1.64 0 -2.94 -0.50334 -3.9 -1.51 s-1.44 -2.3166 -1.44 -3.93 c0 -1.6667 0.49 -2.9934 1.47 -3.98 s2.27 -1.48 3.87 -1.48 z M88.4 14.84 c0 1.0533 0.21334 1.8666 0.64 2.44 s1.0467 0.86 1.86 0.86 c0.84 0 1.47 -0.29334 1.89 -0.88 s0.63 -1.3933 0.63 -2.42 c0 -1.0667 -0.21666 -1.8867 -0.65 -2.46 s-1.0633 -0.86 -1.89 -0.86 c-0.8 0 -1.4133 0.28666 -1.84 0.86 s-0.64 1.3933 -0.64 2.46 z M103.12 9.38 c1.6533 0 2.96 0.50334 3.92 1.51 s1.44 2.3234 1.44 3.95 c0 1.64 -0.49 2.9566 -1.47 3.95 s-2.2766 1.49 -3.89 1.49 c-1.64 0 -2.94 -0.50334 -3.9 -1.51 s-1.44 -2.3166 -1.44 -3.93 c0 -1.6667 0.49 -2.9934 1.47 -3.98 s2.27 -1.48 3.87 -1.48 z M100.62 14.84 c0 1.0533 0.21334 1.8666 0.64 2.44 s1.0467 0.86 1.86 0.86 c0.84 0 1.47 -0.29334 1.89 -0.88 s0.63 -1.3933 0.63 -2.42 c0 -1.0667 -0.21666 -1.8867 -0.65 -2.46 s-1.0633 -0.86 -1.89 -0.86 c-0.8 0 -1.4133 0.28666 -1.84 0.86 s-0.64 1.3933 -0.64 2.46 z M116.14000000000001 9.38 c1.4267 0 2.5666 0.5 3.42 1.5 s1.28 2.3534 1.28 4.06 c0 1.56 -0.41 2.84 -1.23 3.84 s-1.9233 1.5 -3.31 1.5 c-1.36 0 -2.3934 -0.52 -3.1 -1.56 l-0.04 0 l0 4.92 l-2.84 0 l0 -13.98 l2.7 0 l0 1.32 l0.04 0 c0.68 -1.0667 1.7067 -1.6 3.08 -1.6 z M113.06 14.86 c0 1.0133 0.21336 1.8133 0.64002 2.4 s1.04 0.88 1.84 0.88 c0.82666 0 1.4433 -0.29334 1.85 -0.88 s0.61 -1.3867 0.61 -2.4 c0 -1.04 -0.22 -1.8567 -0.66 -2.45 s-1.0533 -0.89 -1.84 -0.89 s-1.39 0.29334 -1.81 0.88 s-0.63 1.4067 -0.63 2.46 z M126.78 9.38 c1.3867 0 2.47 0.28002 3.25 0.84002 s1.2167 1.38 1.31 2.46 l-2.7 0 c-0.04 -0.49334 -0.22 -0.85 -0.54 -1.07 s-0.78666 -0.33 -1.4 -0.33 c-0.53334 0 -0.93 0.08 -1.19 0.24 s-0.39 0.4 -0.39 0.72 c0 0.24 0.08666 0.44 0.26 0.6 s0.43668 0.3 0.79002 0.42 s0.74334 0.22 1.17 0.3 c1.2933 0.25334 2.2066 0.51334 2.74 0.78 s0.92334 0.58666 1.17 0.96 s0.37 0.83334 0.37 1.38 c0 1.16 -0.42334 2.05 -1.27 2.67 s-1.9967 0.93 -3.45 0.93 c-1.52 0 -2.7034 -0.32666 -3.55 -0.98 s-1.2833 -1.54 -1.31 -2.66 l2.7 0 c0 0.53334 0.20666 0.95668 0.62 1.27 s0.93334 0.47 1.56 0.47 c0.53334 0 0.97668 -0.11666 1.33 -0.35 s0.53 -0.55668 0.53 -0.97002 c0 -0.26666 -0.11 -0.48666 -0.33 -0.66 s-0.53 -0.32668 -0.93 -0.46002 s-1.02 -0.28668 -1.86 -0.46002 c-0.66666 -0.13334 -1.26 -0.31334 -1.78 -0.54 s-0.91666 -0.52332 -1.19 -0.88998 s-0.41 -0.81666 -0.41 -1.35 c0 -0.68 0.16334 -1.2733 0.49 -1.78 s0.82666 -0.89 1.5 -1.15 s1.51 -0.39 2.51 -0.39 z"></path></g></svg>